<?xml version="1.0" encoding="UTF-8" standalone="no"?>
<!DOCTYPE svg PUBLIC "-//W3C//DTD SVG 1.1//EN"
 "http://www.w3.org/Graphics/SVG/1.1/DTD/svg11.dtd">
<!-- Generated by graphviz version 14.1.5 (20260411.2331)
 -->
<!-- Title: GCP Target Architecture — Sample Three Tier Insecure Pages: 1 -->
<svg width="716pt" height="653pt"
 viewBox="0.00 0.00 716.00 653.00" xmlns="http://www.w3.org/2000/svg" xmlns:xlink="http://www.w3.org/1999/xlink">
<g id="graph0" class="graph" transform="scale(1 1) rotate(0) translate(32.4 620.55)">
<title>GCP Target Architecture — Sample Three Tier Insecure</title>
<polygon fill="#ffffff" stroke="none" points="-32.4,32.4 -32.4,-620.55 683.6,-620.55 683.6,32.4 -32.4,32.4"/>
<text xml:space="preserve" text-anchor="middle" x="325.6" y="-567.05" font-family="Helvetica,sans-Serif" font-size="18.00" fill="#2d3436">GCP Target Architecture — Sample Three Tier Insecure</text>
<g id="clust1" class="cluster">
<title>cluster_Google Cloud Three&#45;Tier Network</title>
<path fill="#e5f5fd" stroke="#aeb6be" d="M20,-8C20,-8 631.2,-8 631.2,-8 637.2,-8 643.2,-14 643.2,-20 643.2,-20 643.2,-405 643.2,-405 643.2,-411 637.2,-417 631.2,-417 631.2,-417 20,-417 20,-417 14,-417 8,-411 8,-405 8,-405 8,-20 8,-20 8,-14 14,-8 20,-8"/>
<text xml:space="preserve" text-anchor="middle" x="105.62" y="-401.6" font-family="Sans-Serif" font-size="12.00" fill="#2d3436">Google Cloud Three&#45;Tier Network</text>
</g>
<!-- 597de0d5cbf146e79d7c7df7edbd8dde -->
<g id="node1" class="node">
<title>597de0d5cbf146e79d7c7df7edbd8dde</title>
<image xlink:href="/Users/bhatiar3/.cache/uv/archive-v0/lAyNmFIrzgmQ8UNIVdvTy/lib/python3.12/site-packages/resources/onprem/client/users.png" width="100.8px" height="100.8px" preserveAspectRatio="xMinYMin meet" x="16" y="-543.4"/>
<text xml:space="preserve" text-anchor="middle" x="66.4" y="-425.95" font-family="Helvetica,sans-Serif" font-size="12.00" fill="#1f2937">Users</text>
</g>
<!-- b871ea83794341288dc4cceb184b7725 -->
<g id="node3" class="node">
<title>b871ea83794341288dc4cceb184b7725</title>
<image xlink:href="/Users/bhatiar3/.cache/uv/archive-v0/lAyNmFIrzgmQ8UNIVdvTy/lib/python3.12/site-packages/resources/gcp/network/load-balancing.png" width="100.8px" height="100.8px" preserveAspectRatio="xMinYMin meet" x="188.8" y="-355.4"/>
<text xml:space="preserve" text-anchor="middle" x="239.2" y="-236.3" font-family="Helvetica,sans-Serif" font-size="12.00" fill="#1f2937">HTTPS Load</text>
<text xml:space="preserve" text-anchor="middle" x="239.2" y="-223.55" font-family="Helvetica,sans-Serif" font-size="12.00" fill="#1f2937">Balancer</text>
</g>
<!-- 597de0d5cbf146e79d7c7df7edbd8dde&#45;&gt;b871ea83794341288dc4cceb184b7725 -->
<g id="edge1" class="edge">
<title>597de0d5cbf146e79d7c7df7edbd8dde&#45;&gt;b871ea83794341288dc4cceb184b7725</title>
<path fill="none" stroke="#4285f4" stroke-width="2.4" d="M116.38,-493C167.42,-493 239.2,-493 239.2,-493 239.2,-493 239.2,-399.37 239.2,-399.37"/>
<polygon fill="#4285f4" stroke="#4285f4" stroke-width="2.4" points="242,-399.37 239.2,-391.37 236.4,-399.37 242,-399.37"/>
</g>
<!-- 142451ce86ed4923890af1955ee29f05 -->
<g id="node2" class="node">
<title>142451ce86ed4923890af1955ee29f05</title>
<image xlink:href="/Users/bhatiar3/.cache/uv/archive-v0/lAyNmFIrzgmQ8UNIVdvTy/lib/python3.12/site-packages/resources/gcp/network/virtual-private-cloud.png" width="100.8px" height="100.8px" preserveAspectRatio="xMinYMin meet" x="16" y="-149.4"/>
<text xml:space="preserve" text-anchor="middle" x="66.4" y="-31.95" font-family="Helvetica,sans-Serif" font-size="12.00" fill="#1f2937">VPC Network</text>
</g>
<!-- dc92155116ed4b66a35ae33b10706bfb -->
<g id="node7" class="node">
<title>dc92155116ed4b66a35ae33b10706bfb</title>
<image xlink:href="/Users/bhatiar3/.cache/uv/archive-v0/lAyNmFIrzgmQ8UNIVdvTy/lib/python3.12/site-packages/resources/gcp/network/firewall-rules.png" width="100.8px" height="100.8px" preserveAspectRatio="xMinYMin meet" x="188.8" y="-149.4"/>
<text xml:space="preserve" text-anchor="middle" x="239.2" y="-30.3" font-family="Helvetica,sans-Serif" font-size="12.00" fill="#1f2937">Firewall</text>
<text xml:space="preserve" text-anchor="middle" x="239.2" y="-17.55" font-family="Helvetica,sans-Serif" font-size="12.00" fill="#1f2937">Rules</text>
</g>
<!-- 142451ce86ed4923890af1955ee29f05&#45;&gt;dc92155116ed4b66a35ae33b10706bfb -->
<g id="edge4" class="edge">
<title>142451ce86ed4923890af1955ee29f05&#45;&gt;dc92155116ed4b66a35ae33b10706bfb</title>
<path fill="none" stroke="#64748b" stroke-width="2" stroke-dasharray="1,5" d="M116.38,-99C116.38,-99 178.01,-99 178.01,-99"/>
<polygon fill="#64748b" stroke="#64748b" stroke-width="2" points="178.01,-101.8 186.01,-99 178.01,-96.2 178.01,-101.8"/>
</g>
<!-- c473836d53944669b199b4710f680f26 -->
<g id="node4" class="node">
<title>c473836d53944669b199b4710f680f26</title>
<image xlink:href="/Users/bhatiar3/.cache/uv/archive-v0/lAyNmFIrzgmQ8UNIVdvTy/lib/python3.12/site-packages/resources/gcp/compute/compute-engine.png" width="100.8px" height="100.8px" preserveAspectRatio="xMinYMin meet" x="361.6" y="-252.4"/>
<text xml:space="preserve" text-anchor="middle" x="412" y="-133.3" font-family="Helvetica,sans-Serif" font-size="12.00" fill="#1f2937">Compute Engine</text>
<text xml:space="preserve" text-anchor="middle" x="412" y="-120.55" font-family="Helvetica,sans-Serif" font-size="12.00" fill="#1f2937">/ Template</text>
</g>
<!-- b871ea83794341288dc4cceb184b7725&#45;&gt;c473836d53944669b199b4710f680f26 -->
<g id="edge2" class="edge">
<title>b871ea83794341288dc4cceb184b7725&#45;&gt;c473836d53944669b199b4710f680f26</title>
<path fill="none" stroke="#4285f4" stroke-width="2.4" d="M289.18,-253.5C289.18,-253.5 350.2,-253.5 350.2,-253.5"/>
<polygon fill="#4285f4" stroke="#4285f4" stroke-width="2.4" points="350.2,-256.3 358.2,-253.5 350.2,-250.7 350.2,-256.3"/>
</g>
<!-- 213e2ca6e5d34e22b8ca64b94a30d486 -->
<g id="node5" class="node">
<title>213e2ca6e5d34e22b8ca64b94a30d486</title>
<image xlink:href="/Users/bhatiar3/.cache/uv/archive-v0/lAyNmFIrzgmQ8UNIVdvTy/lib/python3.12/site-packages/resources/gcp/database/sql.png" width="100.8px" height="100.8px" preserveAspectRatio="xMinYMin meet" x="534.4" y="-149.4"/>
<text xml:space="preserve" text-anchor="middle" x="584.8" y="-30.3" font-family="Helvetica,sans-Serif" font-size="12.00" fill="#1f2937">Cloud SQL</text>
<text xml:space="preserve" text-anchor="middle" x="584.8" y="-17.55" font-family="Helvetica,sans-Serif" font-size="12.00" fill="#1f2937">PostgreSQL</text>
</g>
<!-- c473836d53944669b199b4710f680f26&#45;&gt;213e2ca6e5d34e22b8ca64b94a30d486 -->
<g id="edge3" class="edge">
<title>c473836d53944669b199b4710f680f26&#45;&gt;213e2ca6e5d34e22b8ca64b94a30d486</title>
<path fill="none" stroke="#4285f4" stroke-width="2.4" d="M461.98,-150.5C461.98,-150.5 523,-150.5 523,-150.5"/>
<polygon fill="#4285f4" stroke="#4285f4" stroke-width="2.4" points="523,-153.3 531,-150.5 523,-147.7 523,-153.3"/>
</g>
<!-- d03dc76d243a494bab3aa59f06de8d25 -->
<g id="node6" class="node">
<title>d03dc76d243a494bab3aa59f06de8d25</title>
<image xlink:href="/Users/bhatiar3/.cache/uv/archive-v0/lAyNmFIrzgmQ8UNIVdvTy/lib/python3.12/site-packages/resources/gcp/storage/storage.png" width="100.8px" height="100.8px" preserveAspectRatio="xMinYMin meet" x="534.4" y="-355.4"/>
<text xml:space="preserve" text-anchor="middle" x="584.8" y="-236.3" font-family="Helvetica,sans-Serif" font-size="12.00" fill="#1f2937">Cloud Storage</text>
<text xml:space="preserve" text-anchor="middle" x="584.8" y="-223.55" font-family="Helvetica,sans-Serif" font-size="12.00" fill="#1f2937">Protected Bucket</text>
</g>
<!-- c473836d53944669b199b4710f680f26&#45;&gt;d03dc76d243a494bab3aa59f06de8d25 -->
<g id="edge6" class="edge">
<title>c473836d53944669b199b4710f680f26&#45;&gt;d03dc76d243a494bab3aa59f06de8d25</title>
<path fill="none" stroke="#64748b" stroke-width="2" stroke-dasharray="1,5" d="M461.98,-253.5C461.98,-253.5 523.61,-253.5 523.61,-253.5"/>
<polygon fill="#64748b" stroke="#64748b" stroke-width="2" points="523.61,-256.3 531.61,-253.5 523.61,-250.7 523.61,-256.3"/>
</g>
<!-- dc92155116ed4b66a35ae33b10706bfb&#45;&gt;c473836d53944669b199b4710f680f26 -->
<g id="edge5" class="edge">
<title>dc92155116ed4b66a35ae33b10706bfb&#45;&gt;c473836d53944669b199b4710f680f26</title>
<path fill="none" stroke="#64748b" stroke-width="2" stroke-dasharray="1,5" d="M289.18,-150.5C289.18,-150.5 350.81,-150.5 350.81,-150.5"/>
<polygon fill="#64748b" stroke="#64748b" stroke-width="2" points="350.81,-153.3 358.81,-150.5 350.81,-147.7 350.81,-153.3"/>
</g>
</g>
</svg>
